<?xml version="1.0" encoding="utf-8"?>
<!-- Generator: Adobe Illustrator 23.0.0, SVG Export Plug-In . SVG Version: 6.00 Build 0)  -->
<svg version="1.1" id="Слой_1" xmlns="http://www.w3.org/2000/svg" xmlns:xlink="http://www.w3.org/1999/xlink" x="0px" y="0px"
	 viewBox="0 0 365 74" style="enable-background:new 0 0 365 74;" xml:space="preserve">
<path d="M148.65,2.22c0.63,0.19,1.26,0.4,1.9,0.56c4.68,1.12,8.35,3.66,10.19,8.13c6.11,14.82,0.25,33.13-10.64,41.09
	c-2.29,1.67-5.15,2.84-7.93,3.51c-5.89,1.42-9.99-1.94-10.03-8.06c-0.08-11.37,5.32-19.57,15.12-24.99c1.81-1,3.87-1.57,5.84-2.23
	c3.35-1.12,3.09-1.02,2.23-4.57c-1.35-5.53-9.51-9.25-14.41-6.1c-1.3,0.83-3.29,2.33-4.37,0.46c-0.57-0.98,0.33-3.53,1.37-4.54
	c1.52-1.48,3.76-2.21,5.7-3.27C145.3,2.22,146.98,2.22,148.65,2.22z M156.86,25.5c-0.82,0.09-1.3,0.11-1.77,0.21
	c-9.75,2.02-15.35,11.33-16.14,17.61c-0.26,2.1-0.41,5.47,0.74,6.23c2.19,1.46,4.73-0.49,6.67-2.1c5.63-4.67,8.9-10.75,10.3-17.87
	C156.91,28.31,156.8,26.98,156.86,25.5z"/>
<path d="M306.14,45.34c-3.35,2.03-6.46,4.12-9.76,5.85c-2.89,1.52-6.08,2.98-9.21,0.67c-3.17-2.34-3.87-5.94-3.25-9.49
	c0.96-5.49,2.46-10.88,3.75-16.32c0.09-0.4,0.3-0.78,0.48-1.16c0.91-1.91,2.46-2.78,4.48-2.26c1.59,0.41,2.3,3.02,1.51,5
	c-0.34,0.85-0.83,1.64-1.24,2.46c-2.1,4.19-3.3,8.59-3,13.3c0.17,2.77,1.34,3.61,3.98,2.81c4.6-1.4,8.59-4,11.43-7.79
	c1.33-1.77,1.55-4.49,1.95-6.83c0.42-2.46,0.29-5.01,0.68-7.48c0.29-1.85,1.34-3.38,3.54-3.13c2.14,0.24,2.63,1.94,2.53,3.71
	c-0.65,11.51-0.74,23.11-4.39,34.22c-0.85,2.6-2,5.18-3.46,7.47c-2.88,4.53-7.17,6.27-12.52,5.49c-4.39-0.63-8.17-2.49-11.19-5.68
	c-0.95-1.01-1.64-2.54-1.81-3.92c-0.12-0.92,0.89-1.98,1.4-2.98c0.83,0.53,1.88,0.89,2.45,1.62c3.14,3.99,7.29,5.43,12.18,5.07
	c2.48-0.18,4.09-1.74,5.35-3.72C304.22,58.81,306.41,49.83,306.14,45.34z"/>
<path d="M114.15,44.54c-1.69,1.82-3.15,3.96-5.13,5.38c-2.46,1.77-5.22,3.36-8.09,4.26c-3.99,1.26-7.61-1.51-7.93-5.71
	c-0.15-1.97-0.07-4.05,0.42-5.95c2.12-8.24,6.86-14.8,13.63-19.81c1.8-1.34,4.19-1.99,6.41-2.61c1.01-0.29,2.49-0.11,3.33,0.48
	c1.9,1.31,3.01,3.56,5.44,4.42c0.48,0.17,0.5,2.3,0.36,3.48c-0.43,3.48-1.22,6.92-1.52,10.4c-0.21,2.46-0.05,5.01,0.31,7.46
	c0.18,1.21,0.97,2.52,1.86,3.4c1.22,1.21,2.43,2.19,1.08,3.97c-1.29,1.71-4.08,2.41-5.58,1.12c-1.15-0.98-1.97-2.42-2.71-3.78
	c-0.5-0.93-0.67-2.06-0.87-3.12c-0.18-0.96-0.21-1.96-0.31-2.94C114.62,44.82,114.39,44.68,114.15,44.54z M116,29.42
	c-0.45-0.92-0.76-2.68-1.64-3.04c-1.05-0.44-2.64,0.18-3.92,0.59c-0.74,0.24-1.49,0.87-1.95,1.52c-2.77,3.93-5.56,7.86-8.12,11.93
	c-0.76,1.21-1.04,2.85-1.12,4.31c-0.06,1.14,0.22,3.02,0.9,3.32c0.96,0.42,2.67,0.04,3.64-0.62c4.98-3.41,8.87-7.83,11.18-13.48
	C115.5,32.67,115.61,31.21,116,29.42z"/>
<path d="M16.98,50.99c1.31-9.17,2.7-18.33,3.9-27.51c0.47-3.63,0.56-7.32,0.74-10.98c0.2-4.14,2.29-5.94,6.19-4.74
	c6.48,2,12.93,0.45,19.4,0.31c2.4-0.05,4.85-0.01,7.2,0.41c1.17,0.2,2.49,1.11,3.19,2.1c1.14,1.6-0.04,3.62-2.08,3.74
	c-8.4,0.48-16.82,0.82-25.22,1.37c-0.77,0.05-2.03,1.07-2.13,1.77c-1.29,9.6-2.47,19.22-3.5,28.85c-0.17,1.59,0.46,3.29,0.81,4.92
	c0.38,1.81,0.17,3.48-1.63,4.28c-1.34,0.59-3.08,1.3-4.29,0.9c-1.86-0.62-2.95-2.4-2.56-4.64c0.04-0.25,0.04-0.5,0.06-0.75
	C17.04,51,17.01,51,16.98,50.99z"/>
<path d="M188.83,43.77c-2.77,2.89-5.2,5.77-7.99,8.23c-2.46,2.17-5.43,4.03-8.9,2.41c-3.71-1.74-4.93-5.21-4.63-9
	c0.33-4.14,1.14-8.24,1.81-12.35c0.47-2.88,1.15-5.73,1.59-8.61c0.31-2.04,1.55-3.03,3.39-2.95c2.03,0.08,3.33,1.46,3.11,3.49
	c-0.22,2.05-1.01,4.03-1.44,6.07c-0.96,4.55-1.98,9.1-2.69,13.69c-0.17,1.11,0.49,3.01,1.31,3.41c0.87,0.42,2.61-0.24,3.6-0.94
	c4.93-3.5,7.98-8.46,10.32-13.91c1.02-2.38,1.89-4.82,2.91-7.2c0.74-1.73,1.93-3.17,4.03-2.45c2.15,0.74,2.03,2.61,1.55,4.42
	c-1.61,6.1-2.82,12.25-1.7,18.57c0.27,1.51,0.95,3.02,1.77,4.32c0.76,1.22,2.03,2.17,0.67,3.68c-1.3,1.45-3.98,1.87-5.21,0.52
	c-1.08-1.18-1.97-2.73-2.39-4.27C189.31,48.6,189.18,46.17,188.83,43.77z"/>
<path d="M236.87,32.95c-0.11,10.98-8.12,21.23-16.78,23.16c-6.92,1.54-12.73-2.62-13.1-9.73c-0.46-8.82,2.98-16.21,9.45-22.03
	c3.92-3.52,8.77-4.76,13.73-2.26C235.18,24.62,236.83,29.28,236.87,32.95z M213.2,43.63c0.18,2.49,0.24,5.12,2.7,6.42
	c2.31,1.22,4.64,0.23,6.6-1.13c5.42-3.76,8.79-8.67,8.12-15.61c-0.26-2.73-1.27-5.14-4.08-6.09c-2.95-0.99-5.47,0.16-7.44,2.36
	C215.53,33.58,213.65,38.33,213.2,43.63z"/>
<path d="M327.53,44.2c-0.08,4.71,1.34,6.15,4.9,6.29c3.61,0.14,6.62-1.45,9.6-3.19c1.22-0.71,2.42-1.52,3.73-2.01
	c1.59-0.59,2.72,0.5,2.17,2.09c-0.31,0.91-0.9,1.83-1.6,2.49c-3.23,3-6.93,5.25-11.29,6.18c-9.22,1.96-14.86-3.14-13.54-12.45
	c1.24-8.73,5.82-15.7,12.21-21.57c0.18-0.17,0.4-0.3,0.61-0.45c3.46-2.46,6.44-2.8,8.76-0.99c2.71,2.12,4.31,7.12,3.01,10.22
	c-0.42,1.01-1.6,2.35-2.43,2.35c-0.85,0-1.9-1.34-2.49-2.32c-0.58-0.97-0.65-2.23-1.02-3.33c-0.58-1.7-1.68-1.93-3.11-0.96
	c-0.21,0.14-0.43,0.27-0.6,0.45C331.54,32.18,328.47,38.25,327.53,44.2z"/>
<path d="M71.9,30.43c-0.44,0.78-0.87,1.57-1.31,2.35c-3.6,6.31-7.2,12.62-10.81,18.93c-0.37,0.65-0.81,1.27-1.25,1.88
	c-1.75,2.39-3.53,3.18-4.94,2.02c-2.1-1.72-1.06-3.7-0.01-5.4c4.14-6.66,8.45-13.22,12.56-19.9c1.53-2.48,2.53-5.28,4.04-7.78
	c0.63-1.05,1.92-2.3,2.97-2.37c1.76-0.12,3.29,0.89,3.73,3.01c0.84,4,1.71,8.01,2.77,11.96c0.89,3.3,1.92,6.58,3.18,9.76
	c0.66,1.66,1.78,3.23,3,4.54c1.48,1.59,1.73,3,0.24,4.58c-1.36,1.44-3.92,1.55-5.1-0.06c-1.55-2.13-3.13-4.4-3.98-6.85
	c-1.49-4.33-2.45-8.84-3.62-13.28c-0.29-1.1-0.54-2.21-0.81-3.32C72.35,30.48,72.13,30.46,71.9,30.43z"/>
<path d="M262.02,29.82c-0.75,1.31-1.18,2.08-1.62,2.85c-3.6,6.31-7.17,12.64-10.83,18.92c-0.79,1.35-1.74,2.74-2.95,3.68
	c-0.74,0.57-2.39,0.76-3.13,0.31c-0.73-0.45-1.26-2.01-1.08-2.93c0.28-1.41,1.05-2.84,1.95-3.99c6.23-7.95,10.86-16.82,15.39-25.78
	c0.59-1.16,1.92-2.62,3.02-2.71c2-0.17,3.45,1.11,3.98,3.37c1.45,6.18,2.86,12.38,4.73,18.44c0.83,2.7,2.52,5.24,4.22,7.55
	c1.2,1.63,1.55,2.89,0.22,4.41c-1.24,1.41-3.79,1.7-4.93,0.29c-1.5-1.86-3.09-3.86-3.83-6.07c-1.71-5.14-2.93-10.43-4.36-15.67
	C262.63,31.79,262.41,31.11,262.02,29.82z"/>
</svg>
